# xmcd
# 
# Track frame offsets:
#     150
#     6197
#     21427
#     34472
#     58660
#     67037
#     84062
#     106742
#     117255
#     122305
#     144845
#     163350
#     179835
#     190167
#     205442
#     216800
# 
# Disc length: 3017
# 
# Revision: 7
# Processed by: cddbd v1.5.2PL0 Copyright (c) Steve Scherf et al.
# Submitted via: fre:ac v1.0.31
# 
DISCID=e50bc710
DTITLE=Lindpriid - Kaugel, kaugel, kus on minu kodu
DYEAR=1997
DGENRE=Folk
TTITLE0=Kaugel, kaugel, kus on minu kodu
TTITLE1=Punased nelgid
TTITLE2=Muldonnis
TTITLE3=Sügis
TTITLE4=Su silmist näen ma igal öösel und
TTITLE5=Jaaniöö tuled
TTITLE6=Teed
TTITLE7=Neio armas, neio kallis
TTITLE8=Ma tahaksin kodus olla
TTITLE9=Sõduri igatsus
TTITLE10=Pimedal ööl
TTITLE11=Tango notturno
TTITLE12=Väike kamber
TTITLE13=Tasa heliseb kelluke väljal
TTITLE14=Vihmasadu
TTITLE15=Ma tahaksin kodus olla
EXTD=
EXTT0=
EXTT1=
EXTT2=
EXTT3=
EXTT4=
EXTT5=
EXTT6=
EXTT7=
EXTT8=
EXTT9=
EXTT10=
EXTT11=
EXTT12=
EXTT13=
EXTT14=
EXTT15=
PLAYORDER=
